PathFileType	4	(X/Y/Z)	C:/Users/beibeiliu/ov580/test_trc/User3\sequence.49_training_dense_right.trc
DataRate	CameraRate	NumFrames	NumMarkers	Units	OrigDataRate	OrigDataStartFrame	OrigNumFrames
120	120	10	19	mm	120	59	87
Frame#	Time	ThumbCMC			ThumbMCP			ThumbIP			ThumbTip			IndexMCP			IndexPIP			IndexTip			MiddleMCP			MiddlePIP			MiddleTip			RingMCP			RingPIP			RingTip			PinkyMCP			PinkyPIP			PinkyTip			BackHand1			BackHand2			BackHand3	
		X0	Y0	Z0	X1	Y1	Z1	X2	Y2	Z2	X3	Y3	Z3	X4	Y4	Z4	X5	Y5	Z5	X6	Y6	Z6	X7	Y7	Z7	X8	Y8	Z8	X9	Y9	Z9	X10	Y10	Z10	X11	Y11	Z11	X12	Y12	Z12	X13	Y13	Z13	X14	Y14	Z14	X15	Y15	Z15	X16	Y16	Z16	X17	Y17	Z17	X18	Y18	Z18	
58	0.483333	98.8005	-6.19774	68.8694	83.4215	-27.2396	49.2436	74.2733	-42.731	25.553	86.5899	-53.8047	2.8551	98.1684	14.4313	-2.35161	83.7246	4.30018	-30.889	82.0463	-20.0008	-45.2499	123.978	25.1225	-6.57275	120.207	22.9949	-42.299	112.04	-1.4225	-68.1899	141.531	18.0602	-3.26884	145.796	11.1909	-34.2847	141.192	-11.0249	-51.7871	168.157	4.52607	5.93369	170.818	-5.84449	-18.027	168.588	-28.5758	-33.9726	151.252	21.9686	46.5812	156.441	24.7771	76.1445	120.227	25.2161	62.4176	
59	0.491667	99.326	-6.04255	69.8899	82.0262	-28.4832	47.7854	83.4309	-42.5037	20.6166	93.3656	-54.1699	3.13657	94.5841	23.1718	2.70136	85.2683	20.8981	-27.0613	82.1657	-2.61955	-47.2065	122.811	31.8961	-6.20939	117.802	30.3812	-38.6747	112.977	2.48553	-59.2546	143.706	19.329	-4.12815	143.521	7.67326	-33.5327	139.306	-23.0263	-39.2027	164.922	2.21598	6.39289	164.746	-13.2777	-16.4872	154.257	-37.6249	-21.1809	148.486	23.0856	43.0449	155.586	24.8584	76.5608	120.889	27.2868	64.1911	
60	0.5	97.2892	-6.34165	72.2191	88.7715	-26.4032	45.9917	82.4971	-42.6706	20.7358	93.8332	-55.0801	-1.26896	98.9948	29.9012	2.31844	84.1756	29.3686	-27.1147	76.7524	10.8479	-49.0045	122.75	31.6303	-2.66086	115.414	28.2744	-36.3145	115.539	-12.0841	-50.0844	144.279	16.4679	-8.6693	141.713	-1.19117	-30.864	135.723	-33.7244	-25.205	164.912	-0.160531	5.28309	155.425	-17.2697	-16.3594	151.871	-43.1355	-16.3272	152.262	24.3277	44.7786	157.642	24.1678	75.3546	121.627	28.4978	61.3075	
61	0.508333	98.6403	-5.06481	68.0193	85.0617	-27.3506	47.1762	79.2811	-42.0044	19.4716	90.7407	-51.0792	-0.26595	99.8972	29.6447	6.83751	90.8418	34.8441	-25.8563	78.9815	24.4852	-46.9744	127.072	25.5706	-6.69061	115.115	13.6606	-39.2117	111.017	-24.419	-37.9144	141.535	11.9591	-7.00117	139.303	-6.12153	-29.6955	133.937	-38.8983	-21.5539	162.616	1.21613	3.08987	162.581	-14.1005	-15.8368	147.716	-42.833	-20.9735	153.189	22.2073	44.2047	158.696	22.1296	74.8497	120.1	28.071	63.6569	
62	0.516667	96.9138	-3.71277	69.5307	86.0502	-23.1004	45.2127	76.4313	-35.3725	16.0282	78.4626	-45.8601	-3.07672	102.913	28.3093	3.59661	94.3723	32.0415	-23.2498	81.6979	27.6772	-50.1226	123.634	18.7623	-14.5574	113.138	-2.02549	-36.0425	112.292	-41.8602	-28.2557	145.206	9.97846	-5.68192	136.486	-10.0879	-31.1837	131.368	-43.6436	-26.8203	169.085	2.85914	7.84961	167.382	-7.23988	-18.0628	157.523	-29.3014	-32.4622	152.259	22.6948	48.3231	160.372	21.45	78.0554	122.215	26.5524	62.709	
63	0.525	96.3609	-4.19314	68.9294	83.9456	-18.8337	44.5668	70.6391	-28.1304	19.381	66.9603	-37.9241	-3.96154	102.29	23.1332	-0.188396	87.3027	22.3983	-26.6595	85.5488	15.0588	-52.2924	122.659	10.6287	-11.362	113.476	-10.1181	-31.4147	111.964	-52.2048	-31.351	145.589	10.2357	-5.0518	141.438	-4.46511	-31.1513	135.682	-32.0724	-41.6675	170.246	4.4864	9.31321	171.86	1.86201	-12.7125	175.777	-9.62884	-37.2722	152.545	24.316	45.5871	158.624	19.6998	78.8907	119.914	25.1676	63.7915	
64	0.533333	98.1435	-6.20377	75.8687	78.5303	-15.3902	46.273	65.4309	-23.5775	25.0933	59.9282	-29.0572	0.703808	95.2259	16.0748	1.13788	84.3488	6.09041	-27.1606	81.9526	-3.48971	-49.295	115.987	7.79943	-10.0401	112.484	-13.1462	-31.6126	104.658	-45.7987	-42.6702	143.137	10.9708	-5.39621	141.755	0.379708	-35.4828	136.058	-16.1212	-51.8948	167.956	5.5011	8.5247	175.482	4.51895	-12.9795	185.198	2.10132	-33.1942	152.167	21.908	45.1488	158.365	19.32	77.6346	121.452	22.4329	66.1601	
65	0.541667	94.2872	-5.15496	74.8119	78.7156	-12.8597	49.7528	61.7214	-17.44	26.8572	54.9492	-24.0618	6.07438	94.0419	11.579	0.161753	87.3486	-1.99917	-26.2618	80.5648	-13.1886	-44.4975	119.161	10.305	-14.789	111.729	-4.07645	-34.6043	102.117	-27.2139	-55.4532	139.497	12.585	-7.38468	138.165	8.06191	-32.113	135.452	-3.00409	-57.8414	166.736	5.48362	6.69791	176.931	3.88859	-14.108	182.958	4.14229	-31.8997	149.967	20.8356	48.0354	154.239	17.3215	78.6652	120.719	24.207	63.2137	
66	0.55	91.2127	-3.19431	74.1138	74.5812	-10.6809	51.7631	56.157	-13.5056	25.1093	50.6909	-20.3967	5.80089	95.6767	10.023	-4.50037	83.7349	1.4874	-24.5798	76.492	-12.9868	-49.4855	121.853	15.6033	-10.6871	115.67	9.22871	-38.0033	108.781	-3.67545	-69.2961	144.417	10.8436	-8.91585	144.28	8.63216	-33.977	141.989	3.11975	-56.6708	167.225	-1.82919	7.63172	173.635	-5.67814	-9.87586	184.998	-11.7436	-33.5182	152.286	17.7859	44.0719	155.49	13.4445	75.3157	120.473	20.5268	64.7767	
67	0.558333	90.0732	0.393963	73.8295	72.9977	-7.50897	50.3659	58.519	-12.1845	24.1284	46.7089	-19.4583	7.39715	100.596	12.1362	-5.28194	87.6422	6.20502	-28.8241	82.6142	-3.36424	-52.7787	125.024	15.6388	-13.5492	124.998	14.2594	-37.1671	120.904	12.1773	-67.6554	148.557	1.66557	-3.49373	147.65	-0.261116	-29.2586	147.335	-7.49722	-55.7439	167.713	-17.6772	8.31463	168.81	-25.9467	-15.7994	174.321	-38.17	-32.0225	153.012	10.2821	47.0231	159.501	8.54327	77.8297	121.091	20.8537	60.9146	
